<svg width="20" height="15" viewBox="0 0 20 15" fill="none" xmlns="http://www.w3.org/2000/svg">
<path d="M19.8861 0.536C19.8012 0.374445 19.6738 0.239136 19.5177 0.144676C19.3615 0.0502152 19.1826 0.000190289 19.0001 0H1.00006C0.817902 0.000752409 0.639397 0.0511466 0.483739 0.145763C0.328082 0.240379 0.201162 0.375638 0.116628 0.536993C0.0320935 0.698348 -0.0068559 0.879695 0.00396806 1.06153C0.014792 1.24337 0.0749798 1.41881 0.178059 1.569L9.17806 14.569C9.2698 14.7022 9.39255 14.8112 9.53575 14.8864C9.67895 14.9617 9.83829 15.001 10.0001 15.001C10.1618 15.001 10.3212 14.9617 10.4644 14.8864C10.6076 14.8112 10.7303 14.7022 10.8221 14.569L19.8221 1.569C19.9261 1.41912 19.9871 1.24357 19.9984 1.06144C20.0097 0.879317 19.9708 0.697581 19.8861 0.536ZM10.0001 12.243L2.90806 2H17.0921L10.0001 12.243Z" fill="#A0A9B1"/>
</svg>
