<svg width="64" height="64" viewBox="0 0 64 64" fill="none" xmlns="http://www.w3.org/2000/svg">
<path fill-rule="evenodd" clip-rule="evenodd" d="M64 32C64 23.5131 60.6286 15.3737 54.6274 9.37258C48.6263 3.37142 40.4869 0 32 0C23.5131 0 15.3737 3.37142 9.37258 9.37258C3.37142 15.3737 0 23.5131 0 32C0 40.4869 3.37142 48.6263 9.37258 54.6274C15.3737 60.6286 23.5131 64 32 64C40.4869 64 48.6263 60.6286 54.6274 54.6274C60.6286 48.6263 64 40.4869 64 32ZM34 44C34 44.5304 33.7893 45.0391 33.4142 45.4142C33.0391 45.7893 32.5304 46 32 46C31.4696 46 30.9609 45.7893 30.5858 45.4142C30.2107 45.0391 30 44.5304 30 44V24.828L21.416 33.416C21.23 33.602 21.0093 33.7495 20.7663 33.8501C20.5234 33.9507 20.263 34.0025 20 34.0025C19.737 34.0025 19.4766 33.9507 19.2337 33.8501C18.9907 33.7495 18.77 33.602 18.584 33.416C18.398 33.23 18.2505 33.0093 18.1499 32.7663C18.0493 32.5234 17.9975 32.263 17.9975 32C17.9975 31.737 18.0493 31.4766 18.1499 31.2337C18.2505 30.9907 18.398 30.77 18.584 30.584L30.584 18.584C30.7698 18.3977 30.9905 18.25 31.2335 18.1492C31.4764 18.0483 31.7369 17.9964 32 17.9964C32.2631 17.9964 32.5236 18.0483 32.7665 18.1492C33.0095 18.25 33.2302 18.3977 33.416 18.584L45.416 30.584C45.7915 30.9595 46.0025 31.4689 46.0025 32C46.0025 32.5311 45.7915 33.0405 45.416 33.416C45.0405 33.7915 44.5311 34.0025 44 34.0025C43.4689 34.0025 42.9595 33.7915 42.584 33.416L34 24.828V44Z" fill="#4D5964"/>
</svg>
