<svg width="129" height="83" viewBox="0 0 129 83" fill="none" xmlns="http://www.w3.org/2000/svg">
<rect x="61" y="2" width="64" height="78" rx="5" fill="#A5CEFF"/>
<path d="M119.521 83H67.6458C62.8803 83 59 79.1198 59 74.3542V8.64583C59 3.88025 62.8803 0 67.6458 0H119.521C124.286 0 128.167 3.88025 128.167 8.64583V74.3542C128.167 79.1198 124.286 83 119.521 83ZM67.6458 3.45833C64.7858 3.45833 62.4583 5.78579 62.4583 8.64583V74.3542C62.4583 77.2142 64.7858 79.5417 67.6458 79.5417H119.521C122.381 79.5417 124.708 77.2142 124.708 74.3542V8.64583C124.708 5.78579 122.381 3.45833 119.521 3.45833H67.6458Z" fill="black"/>
<path d="M112.604 27.6667H74.5625C71.7025 27.6667 69.375 25.3392 69.375 22.4792V15.5625C69.375 12.7025 71.7025 10.375 74.5625 10.375H112.604C115.464 10.375 117.792 12.7025 117.792 15.5625V22.4792C117.792 25.3392 115.464 27.6667 112.604 27.6667ZM74.5625 13.8333C73.608 13.8333 72.8333 14.608 72.8333 15.5625V22.4792C72.8333 23.4337 73.608 24.2083 74.5625 24.2083H112.604C113.559 24.2083 114.333 23.4337 114.333 22.4792V15.5625C114.333 14.608 113.559 13.8333 112.604 13.8333H74.5625Z" fill="black"/>
<path d="M79.75 48.4167C78.7955 48.4167 78.0208 47.642 78.0208 46.6875V36.3125C78.0208 35.358 78.7955 34.5833 79.75 34.5833C80.7045 34.5833 81.4792 35.358 81.4792 36.3125V46.6875C81.4792 47.642 80.7045 48.4167 79.75 48.4167Z" fill="black"/>
<path d="M84.9375 43.2292H74.5625C73.608 43.2292 72.8333 42.4545 72.8333 41.5C72.8333 40.5455 73.608 39.7708 74.5625 39.7708H84.9375C85.892 39.7708 86.6667 40.5455 86.6667 41.5C86.6667 42.4545 85.892 43.2292 84.9375 43.2292Z" fill="black"/>
<path d="M112.604 43.2292H102.229C101.275 43.2292 100.5 42.4545 100.5 41.5C100.5 40.5455 101.275 39.7708 102.229 39.7708H112.604C113.559 39.7708 114.333 40.5455 114.333 41.5C114.333 42.4545 113.559 43.2292 112.604 43.2292Z" fill="black"/>
<path d="M112.604 58.7917H102.229C101.275 58.7917 100.5 58.017 100.5 57.0625C100.5 56.108 101.275 55.3333 102.229 55.3333H112.604C113.559 55.3333 114.333 56.108 114.333 57.0625C114.333 58.017 113.559 58.7917 112.604 58.7917Z" fill="black"/>
<path d="M112.604 69.1667H102.229C101.275 69.1667 100.5 68.392 100.5 67.4375C100.5 66.483 101.275 65.7083 102.229 65.7083H112.604C113.559 65.7083 114.333 66.483 114.333 67.4375C114.333 68.392 113.559 69.1667 112.604 69.1667Z" fill="black"/>
<path d="M74.5625 69.1666C74.1198 69.1666 73.6772 68.9972 73.3383 68.6617C72.6639 67.9874 72.6639 66.8911 73.3383 66.2167L83.7133 55.8417C84.3876 55.1673 85.4839 55.1673 86.1583 55.8417C86.8327 56.5161 86.8327 57.6124 86.1583 58.2867L75.7833 68.6617C75.4478 68.9972 75.0052 69.1666 74.5625 69.1666Z" fill="black"/>
<path d="M84.9375 69.1666C84.4948 69.1666 84.0522 68.9972 83.7133 68.6617L73.3383 58.2867C72.6639 57.6124 72.6639 56.5161 73.3383 55.8417C74.0126 55.1673 75.1089 55.1673 75.7833 55.8417L86.1583 66.2167C86.8327 66.8911 86.8327 67.9874 86.1583 68.6617C85.8228 68.9972 85.3802 69.1666 84.9375 69.1666Z" fill="black"/>
<path d="M52.6102 23.2102L48.2352 27.5853C47.9748 27.8456 47.8473 28.1831 47.8347 28.5232C48.9211 28.5667 50.0061 28.6184 51.0912 28.6884L54.5898 25.1913C55.1373 24.6438 55.1373 23.759 54.5898 23.2117C54.0425 22.6642 53.1575 22.6627 52.6102 23.2102Z" fill="black"/>
<path d="M37.2102 23.2102L32.7386 27.6818C32.4404 27.98 32.3201 28.3775 32.3467 28.7667C33.5045 28.6827 34.6623 28.6141 35.8215 28.5582L39.1899 25.1898C39.7374 24.6423 39.7374 23.7575 39.1899 23.2102C38.6424 22.6628 37.7576 22.6628 37.2102 23.2102Z" fill="black"/>
<path d="M35.4 39.6H32.6V52.2H35.4V39.6Z" fill="black"/>
<path d="M41 39.6H38.2V52.2H41V39.6Z" fill="black"/>
<path d="M46.6001 39.6H43.8V52.2H46.6001V39.6Z" fill="black"/>
<path d="M52.2 39.6H49.4V52.2H52.2V39.6Z" fill="black"/>
<path d="M18.6 83H7.39999C5.08441 83 3.19999 81.1156 3.19999 78.8V63.4588C3.19999 62.8779 3.55847 62.357 4.10152 62.1498C4.64194 61.9441 5.25799 62.0911 5.64567 62.5278C6.95194 63.9922 8.64441 65.0101 10.5415 65.4706C14.1129 66.2728 17.8327 66.956 21.6001 67.4977C22.2888 67.5972 22.7999 68.188 22.7999 68.8837V78.8C22.8 81.1156 20.9156 83 18.6 83ZM6.00005 66.5066V78.8C6.00005 79.5727 6.62857 80.1999 7.39999 80.1999H18.6C19.3715 80.1999 20 79.5727 20 78.8V70.0906C16.5671 69.5684 13.1806 68.9328 9.91573 68.1978C9.90867 68.1963 9.90178 68.195 9.89473 68.1922C8.49626 67.8575 7.18294 67.285 6.00005 66.5066Z" fill="black"/>
<path d="M42.3999 71.7972C36.8881 71.7972 31.3792 71.4905 25.9066 70.8802C25.5174 70.8368 25.1632 70.631 24.9322 70.3147C24.7012 69.9984 24.6129 69.5979 24.69 69.2143L26.1279 62.0281C26.7804 58.766 29.6657 56.4001 32.9906 56.4001H51.8081C55.1332 56.4001 58.0198 58.766 58.6708 62.0281L60.1087 69.2143C60.1856 69.5979 60.0975 69.9984 59.8665 70.3147C59.6355 70.6312 59.2813 70.8369 58.8922 70.8802C53.4208 71.4905 47.9118 71.7972 42.3999 71.7972ZM27.735 68.2595C37.4748 69.2437 47.3238 69.2437 57.0637 68.2595L55.9254 62.5769C55.5363 60.6211 53.8044 59.2001 51.8094 59.2001H32.9906C30.9956 59.2001 29.2638 60.6211 28.8731 62.5769L27.735 68.2595Z" fill="black"/>
<path d="M19.8978 53.6015C19.5772 53.6015 19.2566 53.5638 18.9429 53.4853L10.3582 51.1222C8.34499 50.6196 7.06399 48.5979 7.47694 46.5287L7.9473 44.174C8.34909 42.1719 10.19 40.8182 12.2103 41.0212L22.0859 42.2882C24.0738 42.4871 25.6012 44.1754 25.6012 46.211V49.0697C25.604 50.7693 24.5204 52.2744 22.9049 52.8148C22.9034 52.8148 22.9034 52.8148 22.9034 52.8148L21.1478 53.4C20.7406 53.5342 20.3193 53.6015 19.8978 53.6015ZM11.789 43.7973C11.2751 43.7973 10.8005 44.1768 10.6914 44.7227L10.221 47.0762C10.1021 47.6782 10.473 48.2662 11.0666 48.4146L19.6514 50.7778C19.8305 50.8226 20.0531 50.8127 20.2646 50.7442L22.0147 50.1604C22.485 50.0036 22.8 49.5654 22.8 49.0727V46.2123C22.8 45.62 22.3576 45.1314 21.7683 45.0727L11.8912 43.8056C11.8576 43.7986 11.8239 43.7973 11.789 43.7973Z" fill="black"/>
<path d="M15.8 63.4C15.7243 63.4 15.6487 63.3944 15.5718 63.3804L2.19757 61.1754C1.69357 61.0929 1.27504 60.7415 1.10409 60.2598C0.63651 58.9312 0.399933 57.5424 0.399933 56.1354V54.5339C0.399933 54.1222 0.580565 53.7316 0.895565 53.4656C1.20909 53.1997 1.61941 53.0862 2.03104 53.1521L13.2311 55.0183C13.6721 55.0925 14.0529 55.3725 14.253 55.7729L17.0531 61.3728C17.2884 61.8432 17.2393 62.4061 16.9271 62.8302C16.661 63.1927 16.2395 63.4 15.8 63.4ZM3.50941 58.5547L13.3207 60.1717L12.0662 57.6629L3.19999 56.1873C3.20425 56.9894 3.30777 57.7818 3.50941 58.5547Z" fill="black"/>
<path d="M25.5986 12.9999C25.3886 12.9999 25.1744 12.9524 24.9742 12.8529C24.2827 12.5071 24.0026 11.6658 24.3485 10.9741L25.7484 8.17405C26.0956 7.48253 26.9342 7.20247 27.6272 7.54831C28.3188 7.89416 28.5988 8.73547 28.253 9.42716L26.853 12.2272C26.6066 12.7173 26.1125 12.9999 25.5986 12.9999Z" fill="black"/>
<path d="M42.3999 74.6C41.6257 74.6 41 73.9743 41 73.2001V70.4C41 69.6258 41.6257 69 42.3999 69C43.1741 69 43.7999 69.6258 43.7999 70.4V73.2001C43.8 73.9743 43.1741 74.6 42.3999 74.6Z" fill="black"/>
<path d="M49.4 74.6C48.6258 74.6 48 73.9743 48 73.2001V70.2335C48 69.4593 48.6258 68.8335 49.4 68.8335C50.1742 68.8335 50.7999 69.4593 50.7999 70.2335V73.2001C50.7999 73.9743 50.1742 74.6 49.4 74.6Z" fill="black"/>
<path d="M56.4001 74.6C55.6258 74.6 55.0001 73.9743 55.0001 73.2001V69.7308C55.0001 68.9566 55.6258 68.3308 56.4001 68.3308C57.1743 68.3308 57.8 68.9566 57.8 69.7308V73.2001C57.8 73.9743 57.1743 74.6 56.4001 74.6Z" fill="black"/>
<path d="M35.4001 74.6C34.6259 74.6 34.0001 73.9743 34.0001 73.2001V70.2307C34.0001 69.4565 34.6259 68.8307 35.4001 68.8307C36.1743 68.8307 36.8 69.4565 36.8 70.2307V73.2001C36.8 73.9743 36.1743 74.6 35.4001 74.6Z" fill="black"/>
<path d="M28.4 74.6C27.6258 74.6 27 73.9743 27 73.2001V69.7323C27 68.9581 27.6258 68.3323 28.4 68.3323C29.1742 68.3323 29.7999 68.9581 29.7999 69.7323V73.2001C29.7999 73.9743 29.1742 74.6 28.4 74.6Z" fill="black"/>
<path d="M42.3999 12.9999C41.6257 12.9999 41 12.3727 41 11.6V3.19999C41 2.42726 41.6257 1.80005 42.3999 1.80005C43.1741 1.80005 43.7999 2.42726 43.7999 3.19999V11.6C43.8 12.3727 43.1741 12.9999 42.3999 12.9999Z" fill="black"/>
<path d="M7.71072 36.8H4.59993C2.28435 36.8 0.399933 34.9156 0.399933 32.6C0.399933 30.2844 2.28435 28.4 4.59993 28.4H9.94378C10.4086 28.4 10.8425 28.631 11.103 29.0146C11.3636 29.3982 11.4166 29.8882 11.2445 30.3181L9.01141 35.918C8.79993 36.4501 8.28346 36.8 7.71072 36.8ZM4.59993 31.2001C3.82851 31.2001 3.19999 31.8286 3.19999 32.6C3.19999 33.3714 3.82851 34 4.59993 34H6.76145L7.87724 31.1999L4.59993 31.2001Z" fill="black"/>
<path d="M52.3918 53.6H32.4082C30.2075 53.6 28.3623 51.9494 28.1199 49.7626L27.3682 42.9907C27.2324 41.7727 27.6258 40.5505 28.4435 39.6363C29.2612 38.7222 30.4314 38.2 31.6565 38.2H53.1437C54.3688 38.2 55.5405 38.7235 56.3582 39.6363C57.1757 40.5492 57.5678 41.7713 57.4335 42.9907L56.6803 49.7626C56.4365 51.9494 54.5926 53.6 52.3918 53.6ZM31.6565 41C31.2197 41 30.8193 41.1792 30.528 41.504C30.2368 41.8288 30.1025 42.2474 30.15 42.6815L30.9018 49.4533C30.9886 50.2205 31.6368 50.8001 32.4082 50.8001H52.3904C53.1631 50.8001 53.8113 50.2205 53.8953 49.4533L54.647 42.6815C54.6946 42.2475 54.5602 41.8303 54.269 41.504C53.9778 41.1778 53.5788 41 53.1434 41H31.6565Z" fill="black"/>
<path d="M33.9999 53.6C33.2257 53.6 32.6 52.9742 32.6 52.2V39.6C32.6 38.8273 33.2257 38.2001 33.9999 38.2001C34.7741 38.2001 35.4 38.8273 35.4 39.6V52.2C35.4002 52.9742 34.7741 53.6 33.9999 53.6Z" fill="black"/>
<path d="M39.6001 53.6C38.8259 53.6 38.2 52.9742 38.2 52.2V39.6C38.2 38.8273 38.8259 38.2001 39.6001 38.2001C40.3743 38.2001 41 38.8273 41 39.6V52.2C41 52.9742 40.3743 53.6 39.6001 53.6Z" fill="black"/>
<path d="M45.2 53.6C44.4258 53.6 43.8 52.9742 43.8 52.2V39.6C43.8 38.8273 44.4258 38.2001 45.2 38.2001C45.9742 38.2001 46.6001 38.8273 46.6001 39.6V52.2C46.6001 52.9742 45.9742 53.6 45.2 53.6Z" fill="black"/>
<path d="M50.7999 53.6C50.0257 53.6 49.4 52.9742 49.4 52.2V39.6C49.4 38.8273 50.0257 38.2001 50.7999 38.2001C51.5741 38.2001 52.2 38.8273 52.2 39.6V52.2C52.2002 52.9742 51.5741 53.6 50.7999 53.6Z" fill="black"/>
<path d="M12.9999 76.0055C11.3913 76.0055 9.78267 75.5379 8.37846 74.6013L3.82294 71.5648C3.18031 71.135 3.00673 70.2671 3.4351 69.623C3.86215 68.979 4.73152 68.8054 5.37694 69.2351L9.93246 72.2718C11.7959 73.5163 14.2038 73.5163 16.0687 72.2718L20.6243 69.2351C21.2669 68.8053 22.1377 68.9789 22.5661 69.623C22.9959 70.2669 22.8224 71.135 22.1783 71.5648L17.6227 74.6014C16.2172 75.5379 14.6086 76.0055 12.9999 76.0055Z" fill="black"/>
<path d="M6.00004 41.0911C5.69768 41.0911 5.39662 40.9931 5.14462 40.7986C4.64899 40.4163 4.46836 39.7528 4.70083 39.1717L13.7924 16.37C15.2848 12.6221 18.8576 10.2002 22.8937 10.2002H60.5999C61.3741 10.2002 61.9998 10.8275 61.9998 11.6002V35.2687C61.9998 35.6732 61.8248 36.0583 61.5183 36.3242C61.2131 36.5902 60.8071 36.7106 60.4068 36.656C45.7404 34.6205 30.9941 35.0628 16.5798 37.9719L10.3078 39.2697C9.03799 39.5328 7.86757 40.0537 6.8302 40.8194C6.58378 41 6.29126 41.0911 6.00004 41.0911ZM22.8937 13C20.0097 13 17.459 14.7303 16.3921 17.4072L8.65703 36.8041C9.01125 36.6949 9.37251 36.6025 9.74067 36.5269L16.0197 35.2276C30.2296 32.3618 44.7462 31.8396 59.1999 33.6709V13H22.8937Z" fill="black"/>
<path d="M15.4723 32.4545C15.0622 32.4545 14.6645 32.2738 14.3958 31.9505C14.0681 31.5557 13.9813 31.0138 14.1718 30.5364L18.992 18.4447C19.6331 16.8375 21.1648 15.8002 22.8937 15.8002H60.5999C61.3741 15.8002 61.9998 16.4274 61.9998 17.2001V29.6195C61.9998 30.0227 61.8262 30.4076 61.5224 30.6723C61.2185 30.9369 60.8154 31.0586 60.415 31.0068C45.3622 29.0034 30.3065 29.5201 15.7465 32.4264C15.6545 32.4459 15.5634 32.4545 15.4723 32.4545ZM22.8937 18.6001C22.3169 18.6001 21.806 18.9459 21.5917 19.4806L17.7166 29.2021C31.2909 26.7549 45.2195 26.3294 59.1986 28.0289V18.5999L22.8937 18.6001Z" fill="black"/>
<path d="M42.2838 71.7972C31.4015 71.7972 20.5712 70.5959 9.91572 68.1991C4.30445 66.844 0.399933 61.8853 0.399933 56.1354V47.9999C0.399933 42.4713 4.32841 37.6469 9.74066 36.5283L16.0197 35.2291C30.7477 32.2583 45.8075 31.8061 60.7917 33.8837C61.4847 33.9788 61.9998 34.5711 61.9998 35.2697V69.2532C61.9998 69.9589 61.4735 70.5552 60.7734 70.642C54.6094 71.4136 48.4382 71.7972 42.2838 71.7972ZM42.3035 35.4014C33.6682 35.4014 25.0667 36.2596 16.5813 37.9718L10.3093 39.2695C6.18904 40.1221 3.20015 43.7929 3.20015 47.9999V56.1353C3.20015 60.5873 6.22267 64.4275 10.5516 65.4732C26.499 69.06 42.8691 69.9126 59.2002 68.0127V36.4949C53.5691 35.7654 47.9287 35.4014 42.3035 35.4014Z" fill="black"/>
<path d="M33.7284 30.0717C33.3699 30.0717 33.0116 29.9345 32.7386 29.6615C32.1912 29.114 32.1912 28.2278 32.7386 27.6818L37.2102 23.2102C37.7576 22.6628 38.6424 22.6628 39.1899 23.2102C39.7374 23.7577 39.7374 24.6438 39.1899 25.1898L34.7182 29.6615C34.4437 29.9345 34.0867 30.0717 33.7284 30.0717Z" fill="black"/>
<path d="M49.2249 29.975C48.8664 29.975 48.5081 29.8379 48.2351 29.5649C47.6877 29.0174 47.6877 28.1326 48.2352 27.5853L52.6102 23.2102C53.1577 22.6627 54.0425 22.6628 54.5898 23.2102C55.1372 23.7577 55.1372 24.6425 54.5898 25.1898L50.2147 29.5649C49.9417 29.8379 49.5834 29.975 49.2249 29.975Z" fill="black"/>
</svg>
