<svg width="40" height="40" viewBox="0 0 40 40" fill="none" xmlns="http://www.w3.org/2000/svg">
<path d="M20 0C8.95467 0 0 8.95467 0 20C0 31.0453 8.95467 40 20 40C31.0453 40 40 31.0453 40 20C40 8.95467 31.0453 0 20 0ZM18.0107 30.4787H19.53L20 29.032L20.47 30.4787H21.9893L20.76 31.3727L21.2287 32.818L20 31.9247L18.7693 32.818L19.2393 31.3727L18.0107 30.4787ZM15.7093 31.0173L14.48 30.1233L13.2493 31.0173L13.7193 29.572L12.49 28.678H14.0093L14.4793 27.2313L14.9493 28.678H16.4687L15.238 29.572L15.7093 31.0173ZM11.908 27.216L10.6773 26.322L9.448 27.216L9.91733 25.7707L8.68667 24.8767H10.2067L10.6767 23.43L11.146 24.8767H12.666L11.4367 25.7707L11.908 27.216ZM6.88867 19.3407H8.40867L8.87867 17.8953L9.348 19.3407H10.868L9.63867 20.2347L10.1087 21.68L8.878 20.7867L7.64867 21.68L8.11667 20.2347L6.88867 19.3407ZM11.908 16.1447L10.6773 15.2513L9.448 16.1447L9.91733 14.6993L8.68667 13.8053H10.2067L10.6767 12.3587L11.146 13.8053H12.666L11.4367 14.6993L11.908 16.1447ZM15.7093 12.3433L14.48 11.45L13.2493 12.3433L13.7193 10.898L12.49 10.004H14.0093L14.4793 8.55733L14.9493 10.004H16.4687L15.2393 10.898L15.7093 12.3433ZM21.2307 10.5427L20 9.65L18.7707 10.5433L19.2407 9.098L18.01 8.204H19.5307L20 6.75867L20.47 8.204H21.9893L20.76 9.098L21.2307 10.5427ZM30.5513 16.1447L29.3207 15.2513L28.0913 16.1447L28.5613 14.6993L27.3307 13.8053H28.8507L29.32 12.3587L29.79 13.8053H31.31L30.0807 14.6993L30.5513 16.1447ZM30.5513 27.216L29.3207 26.322L28.0913 27.216L28.5613 25.7707L27.3307 24.8767H28.8507L29.32 23.43L29.79 24.8767H31.31L30.0807 25.7707L30.5513 27.216ZM26.28 10.898L26.7487 12.3433L25.5193 11.45L24.2887 12.3433L24.7587 10.898L23.5293 10.004H25.0487L25.5187 8.55733L25.9887 10.004H27.508L26.28 10.898ZM25.0493 28.6787L25.5193 27.232L25.9893 28.6787H27.5087L26.2793 29.5727L26.7493 31.018L25.5187 30.124L24.288 31.018L24.758 29.5727L23.5287 28.6787H25.0493ZM32.35 21.68L31.1207 20.7867L29.89 21.68L30.36 20.2347L29.1307 19.3407H30.6507L31.12 17.8953L31.5887 19.3407H33.11L31.8793 20.2347L32.35 21.68Z" fill="#1348CF"/>
</svg>
