<svg width="94" height="94" viewBox="0 0 94 94" fill="none" xmlns="http://www.w3.org/2000/svg">
<path d="M10.4445 37.1357H38.2963V46.9999H55.7037V37.1357H83.5556V80.074H10.4445V37.1357Z" fill="#A5CEFF"/>
<path d="M29.5586 47C29.5586 45.986 28.7365 45.1641 27.7227 45.1641C26.7089 45.1641 25.8867 45.986 25.8867 47V58.0156C25.8867 59.0296 26.7089 59.8516 27.7227 59.8516H66.2773C67.2911 59.8516 68.1133 59.0296 68.1133 58.0156V47C68.1133 45.986 67.2911 45.1641 66.2773 45.1641C65.2635 45.1641 64.4414 45.986 64.4414 47V56.1797H29.5586V47Z" fill="black"/>
<path d="M92.1641 79.3125H85.7383V35.9844C85.7383 34.9704 84.9161 34.1484 83.9023 34.1484H57.0977V25.7031H63.5234C64.2189 25.7031 64.8545 25.3102 65.1655 24.6882C65.4763 24.0662 65.4093 23.3219 64.9922 22.7656L48.4688 0.734375C48.1219 0.272086 47.5778 0 47 0C46.4222 0 45.8781 0.272086 45.5312 0.734375L29.0078 22.7656C28.5907 23.3219 28.5235 24.0662 28.8345 24.6882C29.1455 25.3102 29.7811 25.7031 30.4766 25.7031H36.9023V34.1484H10.0977C9.08385 34.1484 8.26172 34.9704 8.26172 35.9844V79.3125H1.83594C0.822133 79.3125 0 80.1345 0 81.1484C0 88.2348 5.76521 94 12.8516 94H38.7383C39.7521 94 40.5742 93.1779 40.5742 92.1641C40.5742 91.1503 39.7521 90.3281 38.7383 90.3281H12.8516C8.41851 90.3281 4.70918 87.1692 3.85639 82.9825H90.1436C89.2908 87.1692 85.5815 90.3281 81.1484 90.3281H55.2617C54.2479 90.3281 53.4258 91.1503 53.4258 92.1641C53.4258 93.1779 54.2479 94 55.2617 94H81.1484C88.2348 94 94 88.2348 94 81.1484C94 80.1345 93.178 79.3125 92.1641 79.3125ZM34.1484 22.0312L47 4.89589L59.8516 22.0312H55.2617C54.2479 22.0312 53.4258 22.8532 53.4258 23.8672V45.1641H40.5742V23.8672C40.5742 22.8532 39.7521 22.0312 38.7383 22.0312H34.1484ZM82.0664 79.3125H11.9336V37.8203H36.9023V47C36.9023 48.014 37.7245 48.8359 38.7383 48.8359H55.2617C56.2755 48.8359 57.0977 48.014 57.0977 47V37.8203H82.0664V79.3125Z" fill="black"/>
<path d="M47 94C48.014 94 48.8359 93.178 48.8359 92.1641C48.8359 91.1501 48.014 90.3281 47 90.3281C45.986 90.3281 45.1641 91.1501 45.1641 92.1641C45.1641 93.178 45.986 94 47 94Z" fill="black"/>
</svg>
