<svg width="89" height="89" viewBox="0 0 89 89" fill="none" xmlns="http://www.w3.org/2000/svg">
<circle cx="50.5" cy="50.5" r="32.5" fill="#A5CEFF"/>
<path d="M50.4295 83.0605C68.4511 83.0605 83.0604 68.4511 83.0604 50.4296C83.0604 32.4081 68.4511 17.7987 50.4295 17.7987C32.408 17.7987 17.7986 32.4081 17.7986 50.4296C17.819 68.4426 32.4164 83.0401 50.4295 83.0605ZM25.2148 48.9464H20.8407C21.6139 33.7558 33.7557 21.6139 48.9463 20.8408V25.2148C48.9463 26.0339 49.6104 26.698 50.4295 26.698C51.2486 26.698 51.9128 26.0339 51.9128 25.2148V20.8408C67.1034 21.6139 79.2452 33.7558 80.0183 48.9464H74.1611C73.342 48.9464 72.6779 49.6105 72.6779 50.4296C72.6779 51.2487 73.342 51.9128 74.1611 51.9128H80.0183C79.2452 67.1032 67.1034 79.2453 51.9128 80.0184V75.6444C51.9128 74.8252 51.2486 74.1611 50.4295 74.1611C49.6104 74.1611 48.9463 74.8252 48.9463 75.6444V80.0184C33.7559 79.2453 21.6139 67.1034 20.8407 51.9128H25.2148C26.0339 51.9128 26.698 51.2487 26.698 50.4296C26.698 49.6105 26.0339 48.9464 25.2148 48.9464Z" fill="black"/>
<path d="M83.8243 31.1733C83.3821 30.4072 82.9136 29.6567 82.4196 28.9228L86.0817 25.2608C86.6607 24.6816 86.6607 23.7427 86.0817 23.1635L77.7015 14.7833C77.1223 14.2043 76.1834 14.2043 75.6042 14.7833L71.9362 18.4394C66.003 14.4336 59.0667 12.1693 51.9127 11.9029V2.96644H62.2953C63.1144 2.96644 63.7785 2.30233 63.7785 1.48322C63.7785 0.664113 63.1144 0 62.2953 0H38.5637C37.7446 0 37.0805 0.664113 37.0805 1.48322C37.0805 2.30233 37.7446 2.96644 38.5637 2.96644H48.9463V11.9162C35.7182 12.4212 23.6759 19.6835 17.057 31.1477H8.8993C8.08019 31.1477 7.41608 31.8118 7.41608 32.6309C7.41608 33.45 8.08019 34.1141 8.8993 34.1141H17.7986C17.8372 34.1141 17.8698 34.0948 17.9084 34.0919C18.4429 34.0987 18.9387 33.8147 19.2032 33.3503C28.6401 16.1033 50.2714 9.77184 67.5185 19.2085C84.7655 28.6451 91.0967 50.2768 81.66 67.5237C72.2232 84.7706 50.5919 91.1021 33.3448 81.6655C27.3764 78.3998 22.4687 73.4922 19.2031 67.5237C18.9411 67.0574 18.4461 66.7704 17.9112 66.7747C17.8726 66.7747 17.8385 66.7524 17.7984 66.7524H8.89912C8.08001 66.7524 7.41589 67.4165 7.41589 68.2356C7.41589 69.0547 8.08001 69.7189 8.89912 69.7189H17.0568C27.701 88.1561 51.2761 94.4738 69.7132 83.8297C88.1506 73.1855 94.4682 49.6104 83.8243 31.1733ZM74.36 20.2219L76.6527 17.9292L82.9356 24.2121L80.6396 26.5081C78.793 24.1802 76.6861 22.0711 74.36 20.2219Z" fill="black"/>
<path d="M14.8322 50.4295C14.8322 49.6104 14.1681 48.9463 13.349 48.9463H1.48322C0.664113 48.9463 0 49.6104 0 50.4295C0 51.2486 0.664113 51.9127 1.48322 51.9127H13.349C14.1681 51.9127 14.8322 51.2486 14.8322 50.4295Z" fill="black"/>
<path d="M4.44965 43.0134H14.8322C15.6513 43.0134 16.3154 42.3493 16.3154 41.5302C16.3154 40.7111 15.6513 40.047 14.8322 40.047H4.44965C3.63054 40.047 2.96643 40.7111 2.96643 41.5302C2.96643 42.3493 3.63036 43.0134 4.44965 43.0134Z" fill="black"/>
<path d="M16.3154 59.3289C16.3154 58.5098 15.6513 57.8457 14.8322 57.8457H4.44965C3.63054 57.8457 2.96643 58.5098 2.96643 59.3289C2.96643 60.148 3.63054 60.8121 4.44965 60.8121H14.8322C15.6513 60.8121 16.3154 60.148 16.3154 59.3289Z" fill="black"/>
<path d="M46.4145 60.3776C46.9937 60.9566 47.9325 60.9566 48.5117 60.3776L69.1285 39.7608C69.6977 39.1716 69.6814 38.2327 69.0922 37.6635C68.5174 37.1084 67.6062 37.1084 67.0312 37.6635L47.4631 57.2317L38.6379 48.4065C38.0487 47.8375 37.1097 47.8536 36.5407 48.4428C35.9856 49.0176 35.9856 49.9288 36.5407 50.5038L46.4145 60.3776Z" fill="black"/>
</svg>
